<mxfile host="Electron" agent="Mozilla/5.0 (Windows NT 10.0; Win64; x64) AppleWebKit/537.36 (KHTML, like Gecko) draw.io/27.0.9 Chrome/134.0.6998.205 Electron/35.4.0 Safari/537.36" version="27.0.9">
  <diagram name="Page-1" id="Hf7dzQWu-y8qFSUlATiw">
    <mxGraphModel dx="1226" dy="739" grid="1" gridSize="10" guides="1" tooltips="1" connect="1" arrows="1" fold="1" page="1" pageScale="1" pageWidth="1100" pageHeight="850" math="0" shadow="0">
      <root>
        <mxCell id="0" />
        <mxCell id="1" parent="0" />
        <mxCell id="Az7bqLT6HixkghIJnz_o-1" value="Mux" style="shadow=0;dashed=0;align=center;html=1;strokeWidth=1;shape=mxgraph.electrical.abstract.mux2;whiteSpace=wrap;" vertex="1" parent="1">
          <mxGeometry x="720" y="206" width="80" height="120" as="geometry" />
        </mxCell>
        <mxCell id="Az7bqLT6HixkghIJnz_o-28" style="edgeStyle=orthogonalEdgeStyle;rounded=0;orthogonalLoop=1;jettySize=auto;html=1;exitX=1;exitY=0.5;exitDx=0;exitDy=-5;exitPerimeter=0;" edge="1" parent="1" source="Az7bqLT6HixkghIJnz_o-2">
          <mxGeometry relative="1" as="geometry">
            <mxPoint x="970" y="287" as="targetPoint" />
          </mxGeometry>
        </mxCell>
        <mxCell id="Az7bqLT6HixkghIJnz_o-2" value="Mux" style="shadow=0;dashed=0;align=center;html=1;strokeWidth=1;shape=mxgraph.electrical.abstract.mux2;whiteSpace=wrap;" vertex="1" parent="1">
          <mxGeometry x="830" y="232" width="80" height="120" as="geometry" />
        </mxCell>
        <mxCell id="Az7bqLT6HixkghIJnz_o-5" value="" style="verticalLabelPosition=bottom;shadow=0;dashed=0;align=center;html=1;verticalAlign=top;shape=mxgraph.electrical.logic_gates.d_type_flip-flop;" vertex="1" parent="1">
          <mxGeometry x="490" y="200" width="200" height="140" as="geometry" />
        </mxCell>
        <mxCell id="Az7bqLT6HixkghIJnz_o-6" value="" style="verticalLabelPosition=bottom;shadow=0;dashed=0;align=center;html=1;verticalAlign=top;shape=mxgraph.electrical.logic_gates.logic_gate;operation=xor;" vertex="1" parent="1">
          <mxGeometry x="180" y="40" width="100" height="60" as="geometry" />
        </mxCell>
        <mxCell id="Az7bqLT6HixkghIJnz_o-7" value="" style="verticalLabelPosition=bottom;shadow=0;dashed=0;align=center;html=1;verticalAlign=top;shape=mxgraph.electrical.logic_gates.logic_gate;operation=and;negating=1;negSize=0.15;" vertex="1" parent="1">
          <mxGeometry x="300" y="80" width="100" height="60" as="geometry" />
        </mxCell>
        <mxCell id="Az7bqLT6HixkghIJnz_o-29" style="edgeStyle=orthogonalEdgeStyle;rounded=0;orthogonalLoop=1;jettySize=auto;html=1;exitX=1;exitY=0.5;exitDx=0;exitDy=0;exitPerimeter=0;" edge="1" parent="1" source="Az7bqLT6HixkghIJnz_o-8">
          <mxGeometry relative="1" as="geometry">
            <mxPoint x="720" y="110" as="targetPoint" />
          </mxGeometry>
        </mxCell>
        <mxCell id="Az7bqLT6HixkghIJnz_o-8" value="" style="verticalLabelPosition=bottom;shadow=0;dashed=0;align=center;html=1;verticalAlign=top;shape=mxgraph.electrical.logic_gates.inverter_2" vertex="1" parent="1">
          <mxGeometry x="400" y="90" width="60" height="40" as="geometry" />
        </mxCell>
        <mxCell id="Az7bqLT6HixkghIJnz_o-10" value="" style="verticalLabelPosition=bottom;shadow=0;dashed=0;align=center;html=1;verticalAlign=top;shape=mxgraph.electrical.logic_gates.schmitt_trigger;" vertex="1" parent="1">
          <mxGeometry x="90" y="60" width="80" height="50" as="geometry" />
        </mxCell>
        <mxCell id="Az7bqLT6HixkghIJnz_o-11" value="" style="endArrow=none;html=1;rounded=0;entryX=0;entryY=0.75;entryDx=0;entryDy=0;entryPerimeter=0;" edge="1" parent="1" source="Az7bqLT6HixkghIJnz_o-10" target="Az7bqLT6HixkghIJnz_o-6">
          <mxGeometry width="50" height="50" relative="1" as="geometry">
            <mxPoint x="220" y="180" as="sourcePoint" />
            <mxPoint x="270" y="130" as="targetPoint" />
          </mxGeometry>
        </mxCell>
        <mxCell id="Az7bqLT6HixkghIJnz_o-12" value="" style="endArrow=none;html=1;rounded=0;entryX=0;entryY=0.25;entryDx=0;entryDy=0;entryPerimeter=0;" edge="1" parent="1" target="Az7bqLT6HixkghIJnz_o-6">
          <mxGeometry width="50" height="50" relative="1" as="geometry">
            <mxPoint x="50" y="55" as="sourcePoint" />
            <mxPoint x="280" y="160" as="targetPoint" />
          </mxGeometry>
        </mxCell>
        <mxCell id="Az7bqLT6HixkghIJnz_o-13" value="" style="endArrow=none;html=1;rounded=0;entryX=0;entryY=0.5;entryDx=0;entryDy=0;entryPerimeter=0;" edge="1" parent="1" target="Az7bqLT6HixkghIJnz_o-10">
          <mxGeometry width="50" height="50" relative="1" as="geometry">
            <mxPoint x="80" y="85" as="sourcePoint" />
            <mxPoint x="190" y="80" as="targetPoint" />
          </mxGeometry>
        </mxCell>
        <mxCell id="Az7bqLT6HixkghIJnz_o-14" value="" style="endArrow=none;html=1;rounded=0;" edge="1" parent="1">
          <mxGeometry width="50" height="50" relative="1" as="geometry">
            <mxPoint x="80" y="85.25" as="sourcePoint" />
            <mxPoint x="80" y="54.75" as="targetPoint" />
          </mxGeometry>
        </mxCell>
        <mxCell id="Az7bqLT6HixkghIJnz_o-15" value="" style="endArrow=none;html=1;rounded=0;entryX=1;entryY=0.5;entryDx=0;entryDy=0;entryPerimeter=0;exitX=0;exitY=0.25;exitDx=0;exitDy=0;exitPerimeter=0;" edge="1" parent="1" source="Az7bqLT6HixkghIJnz_o-7" target="Az7bqLT6HixkghIJnz_o-6">
          <mxGeometry width="50" height="50" relative="1" as="geometry">
            <mxPoint x="340" y="140" as="sourcePoint" />
            <mxPoint x="390" y="90" as="targetPoint" />
            <Array as="points">
              <mxPoint x="280" y="95" />
              <mxPoint x="280" y="70" />
            </Array>
          </mxGeometry>
        </mxCell>
        <mxCell id="Az7bqLT6HixkghIJnz_o-17" value="" style="endArrow=none;html=1;rounded=0;entryX=0;entryY=0.75;entryDx=0;entryDy=0;entryPerimeter=0;" edge="1" parent="1" target="Az7bqLT6HixkghIJnz_o-7">
          <mxGeometry width="50" height="50" relative="1" as="geometry">
            <mxPoint x="80" y="125" as="sourcePoint" />
            <mxPoint x="220" y="90" as="targetPoint" />
          </mxGeometry>
        </mxCell>
        <mxCell id="Az7bqLT6HixkghIJnz_o-18" value="" style="endArrow=none;html=1;rounded=0;" edge="1" parent="1">
          <mxGeometry width="50" height="50" relative="1" as="geometry">
            <mxPoint x="80" y="125.5" as="sourcePoint" />
            <mxPoint x="80" y="85" as="targetPoint" />
          </mxGeometry>
        </mxCell>
        <mxCell id="Az7bqLT6HixkghIJnz_o-19" value="" style="endArrow=none;html=1;rounded=0;entryX=1;entryY=0.5;entryDx=0;entryDy=0;entryPerimeter=0;exitX=0;exitY=0.75;exitDx=0;exitDy=0;exitPerimeter=0;" edge="1" parent="1" source="Az7bqLT6HixkghIJnz_o-5" target="Az7bqLT6HixkghIJnz_o-8">
          <mxGeometry width="50" height="50" relative="1" as="geometry">
            <mxPoint x="510" y="190" as="sourcePoint" />
            <mxPoint x="560" y="140" as="targetPoint" />
            <Array as="points">
              <mxPoint x="460" y="305" />
            </Array>
          </mxGeometry>
        </mxCell>
        <mxCell id="Az7bqLT6HixkghIJnz_o-20" value="" style="endArrow=none;html=1;rounded=0;entryX=1;entryY=0.25;entryDx=0;entryDy=0;entryPerimeter=0;exitX=0;exitY=0.21666666666666667;exitDx=0;exitDy=3;exitPerimeter=0;" edge="1" parent="1" source="Az7bqLT6HixkghIJnz_o-1" target="Az7bqLT6HixkghIJnz_o-5">
          <mxGeometry width="50" height="50" relative="1" as="geometry">
            <mxPoint x="700" y="270" as="sourcePoint" />
            <mxPoint x="750" y="220" as="targetPoint" />
          </mxGeometry>
        </mxCell>
        <mxCell id="Az7bqLT6HixkghIJnz_o-21" value="" style="endArrow=none;html=1;rounded=0;entryX=0;entryY=0.21666666666666667;entryDx=0;entryDy=3;entryPerimeter=0;exitX=1;exitY=0.5;exitDx=0;exitDy=-5;exitPerimeter=0;" edge="1" parent="1" source="Az7bqLT6HixkghIJnz_o-1" target="Az7bqLT6HixkghIJnz_o-2">
          <mxGeometry width="50" height="50" relative="1" as="geometry">
            <mxPoint x="770" y="300" as="sourcePoint" />
            <mxPoint x="820" y="250" as="targetPoint" />
          </mxGeometry>
        </mxCell>
        <mxCell id="Az7bqLT6HixkghIJnz_o-22" value="" style="pointerEvents=1;verticalLabelPosition=bottom;shadow=0;dashed=0;align=center;html=1;verticalAlign=top;shape=mxgraph.electrical.signal_sources.signal_ground;" vertex="1" parent="1">
          <mxGeometry x="810" y="320" width="20" height="20" as="geometry" />
        </mxCell>
        <mxCell id="Az7bqLT6HixkghIJnz_o-23" value="" style="pointerEvents=1;verticalLabelPosition=bottom;shadow=0;dashed=0;align=center;html=1;verticalAlign=top;shape=mxgraph.electrical.signal_sources.signal_ground;" vertex="1" parent="1">
          <mxGeometry x="700" y="306" width="20" height="20" as="geometry" />
        </mxCell>
        <mxCell id="Az7bqLT6HixkghIJnz_o-24" value="" style="endArrow=none;html=1;rounded=0;entryX=0;entryY=0.65;entryDx=0;entryDy=3;entryPerimeter=0;exitX=0.5;exitY=0;exitDx=0;exitDy=0;exitPerimeter=0;" edge="1" parent="1" source="Az7bqLT6HixkghIJnz_o-23" target="Az7bqLT6HixkghIJnz_o-1">
          <mxGeometry width="50" height="50" relative="1" as="geometry">
            <mxPoint x="730" y="340" as="sourcePoint" />
            <mxPoint x="780" y="290" as="targetPoint" />
            <Array as="points">
              <mxPoint x="710" y="287" />
            </Array>
          </mxGeometry>
        </mxCell>
        <mxCell id="Az7bqLT6HixkghIJnz_o-25" value="" style="endArrow=none;html=1;rounded=0;entryX=0;entryY=0.65;entryDx=0;entryDy=3;entryPerimeter=0;exitX=0.5;exitY=0;exitDx=0;exitDy=0;exitPerimeter=0;" edge="1" parent="1" source="Az7bqLT6HixkghIJnz_o-22" target="Az7bqLT6HixkghIJnz_o-2">
          <mxGeometry width="50" height="50" relative="1" as="geometry">
            <mxPoint x="730" y="340" as="sourcePoint" />
            <mxPoint x="780" y="290" as="targetPoint" />
            <Array as="points">
              <mxPoint x="820" y="313" />
            </Array>
          </mxGeometry>
        </mxCell>
        <mxCell id="Az7bqLT6HixkghIJnz_o-26" value="" style="rounded=0;whiteSpace=wrap;html=1;strokeColor=light-dark(#ffffff, #ededed);" vertex="1" parent="1">
          <mxGeometry x="598" y="286" width="50" height="40" as="geometry" />
        </mxCell>
        <mxCell id="Az7bqLT6HixkghIJnz_o-27" value="" style="rounded=0;whiteSpace=wrap;html=1;strokeColor=light-dark(#ffffff, #ededed);" vertex="1" parent="1">
          <mxGeometry x="651" y="296" width="40" height="24" as="geometry" />
        </mxCell>
        <mxCell id="Az7bqLT6HixkghIJnz_o-30" value="V&lt;sub&gt;dd&lt;/sub&gt;" style="verticalLabelPosition=top;verticalAlign=bottom;shape=mxgraph.electrical.signal_sources.vdd;shadow=0;dashed=0;align=center;strokeWidth=1;fontSize=24;html=1;flipV=1;" vertex="1" parent="1">
          <mxGeometry x="470" y="200" width="40" height="32" as="geometry" />
        </mxCell>
        <mxCell id="Az7bqLT6HixkghIJnz_o-32" value="" style="endArrow=none;html=1;rounded=0;entryX=0.5;entryY=0;entryDx=0;entryDy=0;entryPerimeter=0;exitX=0;exitY=0.25;exitDx=0;exitDy=0;exitPerimeter=0;" edge="1" parent="1" source="Az7bqLT6HixkghIJnz_o-5" target="Az7bqLT6HixkghIJnz_o-30">
          <mxGeometry width="50" height="50" relative="1" as="geometry">
            <mxPoint x="510" y="230" as="sourcePoint" />
            <mxPoint x="560" y="180" as="targetPoint" />
          </mxGeometry>
        </mxCell>
        <mxCell id="Az7bqLT6HixkghIJnz_o-33" value="&lt;font style=&quot;font-size: 6px;&quot;&gt;Delay cell&lt;/font&gt;" style="text;strokeColor=none;align=center;fillColor=none;html=1;verticalAlign=middle;whiteSpace=wrap;rounded=0;" vertex="1" parent="1">
          <mxGeometry x="100" y="85" width="45" height="10" as="geometry" />
        </mxCell>
        <mxCell id="Az7bqLT6HixkghIJnz_o-34" value="" style="verticalLabelPosition=bottom;shadow=0;dashed=0;align=center;html=1;verticalAlign=top;shape=mxgraph.electrical.logic_gates.schmitt_trigger;direction=west;" vertex="1" parent="1">
          <mxGeometry x="593" y="385" width="80" height="50" as="geometry" />
        </mxCell>
        <mxCell id="Az7bqLT6HixkghIJnz_o-35" value="&lt;font style=&quot;font-size: 6px;&quot;&gt;Delay cell&lt;/font&gt;" style="text;strokeColor=none;align=center;fillColor=none;html=1;verticalAlign=middle;whiteSpace=wrap;rounded=0;direction=west;" vertex="1" parent="1">
          <mxGeometry x="616" y="410" width="45" height="10" as="geometry" />
        </mxCell>
        <mxCell id="Az7bqLT6HixkghIJnz_o-36" value="" style="endArrow=none;html=1;rounded=0;exitX=1;exitY=0.5;exitDx=0;exitDy=0;exitPerimeter=0;" edge="1" parent="1" source="Az7bqLT6HixkghIJnz_o-34">
          <mxGeometry width="50" height="50" relative="1" as="geometry">
            <mxPoint x="620" y="380" as="sourcePoint" />
            <mxPoint x="590" y="340" as="targetPoint" />
            <Array as="points">
              <mxPoint x="590" y="410" />
            </Array>
          </mxGeometry>
        </mxCell>
        <mxCell id="Az7bqLT6HixkghIJnz_o-37" value="" style="endArrow=none;html=1;rounded=0;exitX=0;exitY=0.5;exitDx=0;exitDy=0;exitPerimeter=0;" edge="1" parent="1" source="Az7bqLT6HixkghIJnz_o-34">
          <mxGeometry width="50" height="50" relative="1" as="geometry">
            <mxPoint x="730" y="330" as="sourcePoint" />
            <mxPoint x="940" y="287" as="targetPoint" />
            <Array as="points">
              <mxPoint x="940" y="410" />
            </Array>
          </mxGeometry>
        </mxCell>
        <mxCell id="Az7bqLT6HixkghIJnz_o-38" value="Reset" style="text;strokeColor=none;align=center;fillColor=none;html=1;verticalAlign=middle;whiteSpace=wrap;rounded=0;" vertex="1" parent="1">
          <mxGeometry x="560" y="315" width="60" height="30" as="geometry" />
        </mxCell>
        <mxCell id="Az7bqLT6HixkghIJnz_o-39" value="clk_samp" style="text;strokeColor=none;align=center;fillColor=none;html=1;verticalAlign=middle;whiteSpace=wrap;rounded=0;" vertex="1" parent="1">
          <mxGeometry x="661" y="80" width="60" height="30" as="geometry" />
        </mxCell>
        <mxCell id="Az7bqLT6HixkghIJnz_o-40" value="clk_sar" style="text;strokeColor=none;align=center;fillColor=none;html=1;verticalAlign=middle;whiteSpace=wrap;rounded=0;" vertex="1" parent="1">
          <mxGeometry x="920" y="256" width="60" height="30" as="geometry" />
        </mxCell>
        <mxCell id="Az7bqLT6HixkghIJnz_o-41" value="External_clock" style="text;strokeColor=none;align=center;fillColor=none;html=1;verticalAlign=middle;whiteSpace=wrap;rounded=0;" vertex="1" parent="1">
          <mxGeometry x="60" y="30" width="60" height="30" as="geometry" />
        </mxCell>
        <mxCell id="Az7bqLT6HixkghIJnz_o-42" value="" style="endArrow=none;html=1;rounded=0;entryX=0.324;entryY=1.039;entryDx=0;entryDy=0;entryPerimeter=0;exitX=0.375;exitY=1;exitDx=10;exitDy=0;exitPerimeter=0;" edge="1" parent="1">
          <mxGeometry width="50" height="50" relative="1" as="geometry">
            <mxPoint x="760" y="324.83" as="sourcePoint" />
            <mxPoint x="680.44" y="110.00000000000001" as="targetPoint" />
            <Array as="points">
              <mxPoint x="760" y="358.83" />
              <mxPoint x="680" y="358.83" />
            </Array>
          </mxGeometry>
        </mxCell>
        <mxCell id="Az7bqLT6HixkghIJnz_o-43" value="" style="endArrow=none;html=1;rounded=0;entryX=0.375;entryY=1;entryDx=10;entryDy=0;entryPerimeter=0;" edge="1" parent="1" target="Az7bqLT6HixkghIJnz_o-2">
          <mxGeometry width="50" height="50" relative="1" as="geometry">
            <mxPoint x="870" y="390" as="sourcePoint" />
            <mxPoint x="830" y="290" as="targetPoint" />
          </mxGeometry>
        </mxCell>
        <mxCell id="Az7bqLT6HixkghIJnz_o-44" value="EOC" style="text;strokeColor=none;align=center;fillColor=none;html=1;verticalAlign=middle;whiteSpace=wrap;rounded=0;" vertex="1" parent="1">
          <mxGeometry x="860" y="370" width="60" height="30" as="geometry" />
        </mxCell>
      </root>
    </mxGraphModel>
  </diagram>
</mxfile>
